<?xml version="1.0" standalone="no"?>
<!DOCTYPE svg PUBLIC "-//W3C//DTD SVG 20010904//EN"
 "http://www.w3.org/TR/2001/REC-SVG-20010904/DTD/svg10.dtd">
<svg version="1.0" xmlns="http://www.w3.org/2000/svg"
 width="1000.000000pt" height="1000.000000pt" viewBox="0 0 1000.000000 1000.000000"
 preserveAspectRatio="xMidYMid meet">
<metadata>
Created by potrace 1.14, written by Peter Selinger 2001-2017
</metadata>
<g transform="translate(0.000000,1000.000000) scale(0.100000,-0.100000)"
fill="#000000" stroke="none">
<path d="M0 5000 l0 -5000 5000 0 5000 0 0 5000 0 5000 -5000 0 -5000 0 0
-5000z m4650 3996 c47 -15 99 -31 115 -36 17 -6 69 -15 117 -22 80 -10 89 -10
107 6 17 16 31 17 108 11 48 -4 126 -14 173 -22 47 -8 105 -18 130 -23 25 -4
64 -17 87 -29 23 -11 46 -21 51 -21 4 0 23 -11 40 -24 18 -13 69 -33 115 -46
45 -12 96 -28 112 -35 17 -8 44 -17 60 -20 103 -24 250 -93 302 -143 21 -21
61 -71 88 -112 27 -41 53 -77 59 -79 5 -2 36 -29 68 -60 33 -31 64 -58 69 -59
5 -2 30 -35 54 -72 25 -38 51 -73 59 -77 18 -10 154 -170 179 -209 9 -16 35
-54 57 -84 22 -30 53 -89 70 -130 17 -41 35 -84 40 -95 24 -52 42 -182 46
-330 3 -88 10 -170 16 -182 6 -12 8 -31 5 -42 -2 -11 2 -29 10 -41 9 -12 13
-33 10 -48 -9 -46 11 -384 27 -457 22 -99 20 -233 -5 -325 -24 -90 -43 -230
-44 -322 l0 -67 61 -63 c33 -35 70 -83 82 -108 27 -59 61 -172 68 -224 5 -43
-12 -810 -19 -861 -9 -63 -38 -188 -51 -219 -44 -106 -141 -198 -245 -232 -28
-9 -51 -17 -51 -19 0 -50 -25 -277 -35 -320 -46 -194 -45 -182 -45 -926 l0
-708 -26 -48 c-14 -26 -38 -64 -53 -83 -15 -19 -34 -51 -44 -71 -9 -19 -34
-55 -55 -80 -22 -24 -58 -71 -81 -104 -23 -33 -59 -78 -79 -100 -21 -22 -49
-56 -64 -75 -35 -47 -292 -308 -394 -401 -141 -128 -212 -191 -236 -207 -13
-8 -56 -44 -96 -79 -40 -35 -77 -63 -82 -63 -5 0 -32 -20 -60 -45 -28 -24 -65
-52 -83 -61 -17 -9 -52 -33 -77 -53 -25 -21 -83 -61 -129 -91 l-85 -53 -143
149 c-79 82 -189 199 -245 259 -136 147 -407 434 -488 516 -103 104 -174 190
-181 218 -3 14 -21 67 -39 116 -17 50 -45 133 -61 185 -16 52 -36 115 -43 140
-14 43 -31 93 -47 135 -33 88 -43 120 -64 195 -32 116 -113 349 -132 380 -8
14 -33 43 -55 65 -129 129 -282 411 -363 668 l-46 147 -63 0 c-70 0 -136 27
-218 89 -119 88 -201 249 -234 458 -19 123 -59 285 -85 340 -10 24 -19 48 -19
53 0 6 -9 27 -19 48 -17 34 -30 81 -61 220 -36 158 0 332 83 410 21 20 24 30
20 65 -7 62 -42 288 -48 317 -3 14 -13 81 -21 150 -9 69 -22 135 -30 147 -8
12 -14 32 -14 44 0 12 -17 42 -37 67 -43 53 -180 319 -187 365 -3 18 -15 101
-27 185 -18 132 -19 156 -7 170 16 20 16 118 -1 178 -6 21 -11 98 -11 170 0
127 1 131 25 154 23 22 26 31 24 95 -1 62 10 147 53 390 10 58 19 77 50 111
20 22 50 65 66 95 45 85 125 189 145 189 10 0 26 13 35 30 15 26 21 29 54 24
35 -6 40 -3 116 72 162 160 335 319 356 327 11 5 39 10 61 11 26 2 58 15 94
39 29 21 57 37 63 37 5 0 22 8 36 19 15 10 50 26 77 34 53 16 157 65 215 100
32 20 61 25 147 26 18 0 85 18 150 40 223 75 258 81 458 76 106 -3 146 -8 215
-29z"/>
<path d="M4255 8911 c-64 -7 -281 -74 -348 -108 -15 -7 -51 -16 -80 -19 -28
-2 -66 -6 -83 -8 -17 -1 -82 -27 -145 -58 -63 -30 -125 -59 -139 -63 -30 -9
-178 -92 -202 -112 -9 -8 -22 -12 -28 -8 -10 6 -82 -31 -88 -47 -2 -4 -10 -8
-17 -8 -8 0 -99 -83 -202 -184 -103 -102 -191 -182 -195 -178 -3 4 -8 21 -10
37 l-4 30 -12 -27 c-8 -20 -19 -28 -36 -28 -18 0 -30 -9 -42 -32 -9 -17 -34
-53 -54 -80 -40 -50 -70 -132 -70 -191 0 -29 -5 -37 -29 -47 -17 -6 -34 -9
-40 -6 -6 4 -12 -8 -15 -26 -3 -18 -13 -76 -21 -128 -9 -52 -19 -142 -22 -199
-5 -87 -10 -111 -30 -139 -20 -31 -23 -46 -23 -131 0 -55 8 -131 19 -178 9
-45 14 -88 10 -95 -5 -7 -6 -30 -2 -50 4 -25 2 -38 -6 -38 -6 0 -11 -7 -11
-15 0 -8 7 -15 15 -15 19 0 19 -16 0 -24 -12 -4 -14 -16 -10 -48 7 -46 29
-165 46 -238 11 -50 66 -163 110 -227 16 -23 29 -44 29 -48 0 -3 19 -34 43
-68 46 -65 44 -58 76 -297 5 -36 21 -139 35 -230 14 -91 30 -201 36 -245 13
-87 15 -81 -49 -117 -20 -11 -39 -34 -52 -65 -36 -85 -14 -300 47 -448 14 -33
30 -73 36 -90 5 -16 19 -49 29 -73 22 -48 31 -89 59 -262 25 -157 32 -182 82
-278 35 -68 55 -94 108 -137 36 -30 78 -59 94 -64 40 -16 111 -13 153 4 44 19
63 14 63 -16 0 -24 2 -30 49 -174 85 -256 131 -359 229 -515 40 -64 179 -229
198 -237 7 -2 17 -27 23 -54 6 -27 26 -91 44 -142 61 -168 68 -191 98 -297 16
-58 34 -114 39 -125 17 -36 51 -138 77 -230 28 -101 99 -305 120 -348 8 -16
47 -61 87 -100 76 -76 161 -165 421 -442 88 -94 205 -218 261 -275 55 -58 118
-124 139 -147 20 -24 43 -43 50 -43 22 0 388 264 490 354 28 24 109 95 180
157 160 139 361 340 480 480 50 59 110 130 135 159 25 29 59 74 75 101 17 26
57 87 90 136 l60 88 5 735 5 735 28 124 c20 84 33 179 40 295 l12 171 68 3
c115 5 187 67 231 196 41 120 51 210 51 456 0 124 5 291 9 372 8 129 7 156 -9
215 -39 148 -98 243 -163 264 -20 6 -41 15 -45 19 -5 4 -3 90 3 190 9 152 16
197 37 259 31 91 41 218 23 306 -28 139 -31 166 -31 292 0 100 -4 133 -14 137
-19 7 -26 95 -29 331 -2 165 -6 214 -23 280 -21 79 -66 184 -113 261 -47 76
-153 206 -175 214 -21 8 -76 76 -86 107 -10 28 -136 164 -166 178 -34 16 -52
37 -111 126 -20 30 -46 67 -57 80 -23 28 -108 89 -124 89 -16 0 -13 -11 6 -25
9 -7 12 -14 7 -18 -5 -3 -20 3 -33 14 -20 17 -22 21 -10 36 13 14 11 16 -19
11 -17 -2 -32 -1 -32 3 0 9 -36 22 -215 79 -71 23 -141 49 -155 59 -42 29 -96
51 -150 61 -28 5 -59 14 -70 20 -13 7 -33 7 -62 0 -59 -13 -68 -12 -68 5 0 21
-27 30 -45 15 -8 -6 -19 -9 -26 -5 -6 4 -14 3 -18 -4 -5 -7 -44 -8 -138 -1
-130 9 -249 33 -351 71 -61 22 -242 32 -357 20z m1799 -406 c11 -8 18 -17 15
-19 -2 -2 -15 4 -28 15 -27 22 -15 26 13 4z m-359 -1518 c50 -17 104 -38 120
-48 126 -71 160 -91 185 -109 51 -37 57 -28 34 50 -11 40 93 -78 107 -120 6
-19 17 -48 24 -65 20 -50 33 -96 50 -180 9 -44 25 -107 35 -140 27 -85 60
-218 60 -241 0 -12 11 -43 25 -70 14 -27 25 -61 25 -76 0 -17 8 -31 19 -37 12
-7 21 -25 24 -48 5 -43 24 -137 39 -198 18 -73 26 -109 41 -185 21 -100 36
-159 52 -195 8 -17 19 -49 24 -70 10 -39 17 -61 85 -270 17 -55 36 -100 41
-100 10 0 16 21 32 115 10 54 25 55 36 3 5 -21 20 -66 33 -100 33 -84 32 -156
-3 -227 -15 -31 -23 -61 -19 -71 5 -14 14 -9 55 32 38 38 54 64 66 108 22 73
15 127 -32 260 -63 179 -63 168 -1 302 30 65 58 118 63 117 6 -1 24 -29 40
-62 26 -53 29 -70 26 -124 -2 -35 -5 -184 -5 -333 -1 -148 -5 -292 -9 -320
-21 -132 -50 -205 -103 -262 -25 -27 -39 -33 -71 -33 -43 0 -90 17 -138 50
-16 11 -33 20 -37 20 -5 0 -8 -66 -8 -147 0 -235 -17 -398 -61 -583 -18 -74
-81 -263 -99 -295 -80 -144 -78 -139 -116 -220 -16 -33 -46 -83 -66 -110 -21
-28 -44 -67 -52 -86 -8 -19 -24 -43 -35 -53 -12 -11 -21 -23 -21 -28 0 -21
-169 -234 -267 -336 -35 -36 -63 -68 -63 -72 0 -6 -107 -105 -233 -216 -78
-69 -277 -184 -317 -184 -9 0 -20 -4 -26 -8 -16 -15 -137 -32 -221 -32 -86 0
-180 14 -228 35 -16 7 -41 16 -55 20 -14 4 -35 13 -47 21 -12 8 -42 25 -65 38
-63 35 -421 381 -468 451 -8 12 -40 47 -70 77 -59 59 -135 140 -242 259 -36
41 -89 99 -116 129 -46 52 -122 154 -122 165 0 2 -16 29 -35 59 -19 30 -35 60
-35 66 0 6 -16 44 -35 84 -19 41 -35 79 -35 85 0 6 -8 25 -18 43 -10 18 -29
78 -41 133 -13 55 -27 111 -32 125 -9 25 -20 77 -39 190 -14 78 -25 115 -36
115 -5 0 -20 -35 -33 -77 -22 -67 -29 -79 -62 -97 -20 -12 -55 -21 -76 -21
-41 0 -103 17 -103 28 0 4 -20 30 -45 57 -63 71 -91 129 -103 215 -7 41 -17
109 -23 150 -12 87 -26 138 -64 235 -48 126 -71 339 -41 380 13 18 16 18 41 5
16 -8 64 -49 108 -90 l80 -75 -6 -97 c-4 -62 -16 -129 -33 -184 -34 -112 -30
-176 12 -237 51 -72 154 -136 154 -94 0 6 -18 29 -39 50 -52 52 -67 116 -45
207 9 36 18 95 21 133 3 37 8 67 12 67 4 0 23 -46 42 -102 20 -56 41 -104 47
-106 8 -2 12 17 12 64 0 36 5 84 12 106 9 31 9 44 0 59 -7 11 -12 61 -12 129
0 72 -5 121 -13 138 -10 21 -11 53 -4 147 4 66 11 221 13 344 l5 223 27 -6
c129 -30 294 -28 392 4 112 38 186 67 217 87 95 58 239 202 324 323 29 42 89
141 89 147 0 3 9 16 20 30 11 14 20 35 20 47 0 20 -1 20 -20 -4 -11 -14 -20
-30 -20 -36 0 -6 -8 -18 -17 -27 -10 -9 -27 -33 -38 -54 -31 -59 -138 -173
-213 -225 -78 -55 -349 -194 -359 -185 -3 4 -4 8 -2 10 27 16 95 52 138 72 67
32 143 95 243 200 72 75 117 131 263 324 46 62 64 78 79 74 16 -4 18 -1 12 20
-4 16 -1 29 9 37 8 7 15 19 15 27 0 26 92 133 119 139 88 19 129 55 68 62 -46
5 -19 22 36 22 64 1 290 41 417 75 82 22 265 54 310 55 10 0 7 5 -8 16 -44 30
-15 35 156 28 159 -6 166 -5 150 11 -16 17 -15 19 5 36 l22 17 -30 33 c-24 25
-26 31 -10 25 11 -4 61 -22 110 -39z m-445 -77 c0 -5 -9 -10 -20 -10 -11 0
-20 5 -20 10 0 6 9 10 20 10 11 0 20 -4 20 -10z m1643 -1320 c32 -36 34 -47 8
-55 -44 -13 -90 -85 -155 -239 -20 -46 -41 -38 -26 9 5 17 17 62 26 100 35
147 68 215 103 215 10 0 30 -13 44 -30z m-4127 -445 c4 -8 14 -15 24 -15 10 0
20 -7 24 -15 3 -8 11 -15 18 -15 15 -1 53 -49 44 -57 -3 -3 -12 -1 -19 6 -8 6
-35 14 -60 17 -37 5 -51 3 -75 -15 -38 -27 -42 -26 -42 5 0 63 69 134 86 89z
m3774 -2410 l0 -544 -56 -93 c-30 -51 -66 -104 -78 -118 -13 -14 -35 -43 -49
-66 -85 -138 -398 -467 -667 -704 -41 -36 -84 -74 -95 -85 -12 -11 -41 -33
-65 -49 -24 -16 -62 -46 -84 -68 -23 -22 -57 -48 -76 -58 -19 -10 -46 -30 -60
-44 -23 -25 -172 -126 -185 -126 -4 0 -12 6 -18 13 -124 131 -204 216 -307
327 -68 74 -152 162 -185 196 -67 68 -290 305 -352 374 -23 25 -46 65 -54 90
-7 25 -16 50 -20 55 -4 6 -15 41 -23 78 -14 60 -68 230 -94 297 -5 14 -15 50
-22 80 -7 30 -16 60 -20 65 -4 6 -10 21 -13 35 -4 21 -60 178 -82 233 -15 35
24 16 67 -33 43 -51 202 -218 341 -358 87 -89 234 -215 273 -235 152 -77 376
-121 514 -99 188 31 370 106 463 192 11 11 25 20 30 20 5 0 39 28 75 63 37 35
79 72 93 83 65 49 291 304 369 418 50 72 119 167 147 202 18 23 33 45 33 51 0
5 13 30 29 55 28 45 63 104 95 163 8 17 25 54 37 83 12 28 25 52 30 52 5 0 9
-239 9 -545z"/>
<path d="M5640 6950 c0 -5 5 -10 10 -10 6 0 10 5 10 10 0 6 -4 10 -10 10 -5 0
-10 -4 -10 -10z"/>
<path d="M4271 6314 c0 -11 3 -14 6 -6 3 7 2 16 -1 19 -3 4 -6 -2 -5 -13z"/>
<path d="M5442 5689 c-36 -18 -45 -19 -59 -8 -21 18 -47 13 -93 -16 -53 -33
-85 -76 -99 -131 -7 -27 -22 -75 -32 -107 -10 -31 -19 -60 -19 -63 0 -7 36 -1
95 16 40 11 143 33 201 44 59 10 45 -7 -24 -30 -96 -31 -232 -125 -232 -161 0
-14 16 -18 22 -5 6 15 94 79 138 100 25 11 70 28 100 37 30 9 66 22 80 30 54
27 338 -12 432 -61 18 -9 53 -35 78 -56 58 -52 80 -63 80 -44 0 8 -25 32 -56
53 -30 21 -67 48 -81 61 -55 50 -147 71 -311 73 -73 1 -135 6 -138 10 -3 5 1
9 8 9 7 0 94 5 193 11 165 9 443 2 608 -16 38 -5 49 -2 54 11 10 28 -49 116
-92 135 -11 5 -39 21 -63 35 -114 67 -263 93 -542 94 -189 0 -208 -2 -248 -21z"/>
<path d="M3795 5490 c-163 -12 -284 -42 -343 -87 -45 -34 -81 -95 -109 -183
-24 -80 -29 -115 -14 -124 8 -5 60 13 146 49 57 24 80 33 125 45 60 17 110 39
110 49 0 20 88 41 202 50 68 5 228 7 355 4 274 -6 274 -7 196 81 -26 31 -59
59 -73 64 -14 5 -41 15 -60 22 -19 7 -53 14 -75 15 -22 1 -69 7 -105 13 -70
13 -196 13 -355 2z"/>
<path d="M5522 5352 c-93 -32 -222 -150 -222 -205 0 -17 5 -18 48 -13 26 3
121 10 212 15 91 4 179 14 195 20 17 7 43 14 58 17 16 2 49 15 74 28 32 18 50
23 62 17 9 -5 23 -6 29 -2 26 16 -3 42 -96 87 -93 46 -98 48 -201 51 -82 2
-118 -1 -159 -15z m196 -45 c4 -20 -25 -34 -40 -19 -15 15 -1 44 19 40 10 -2
19 -11 21 -21z m147 -23 c23 -20 27 -27 15 -32 -8 -3 -28 -19 -43 -35 -36 -39
-48 -26 -40 41 7 60 21 66 68 26z m-365 -17 c0 -18 7 -42 15 -54 8 -12 12 -24
8 -26 -19 -10 -142 -6 -149 5 -8 13 92 108 114 108 7 0 12 -13 12 -33z"/>
<path d="M4114 5250 c-29 -4 -58 -11 -65 -16 -8 -5 -30 -10 -49 -11 -19 -1
-40 -9 -46 -18 -7 -9 -18 -13 -28 -9 -33 13 -113 -17 -172 -64 -56 -46 -76
-72 -55 -72 6 0 28 15 48 33 35 31 141 87 163 87 21 0 8 -16 -33 -39 -70 -40
-147 -105 -147 -123 0 -13 8 -18 31 -18 17 0 56 -7 86 -16 64 -19 283 -16 319
3 11 7 75 14 141 16 67 3 126 8 132 12 62 37 -137 171 -270 182 -35 2 -71 7
-79 11 -26 10 113 20 165 11 123 -20 140 -27 213 -88 29 -24 55 -41 59 -37 8
8 -61 80 -90 94 -135 63 -215 78 -323 62z m20 -96 c20 -8 21 -38 1 -54 -12
-10 -18 -10 -30 0 -18 15 -20 46 -2 53 6 3 13 6 14 6 1 1 8 -2 17 -5z m158
-29 c29 -13 64 -33 77 -43 26 -21 22 -43 -7 -35 -11 2 -45 -3 -76 -12 -69 -20
-92 -15 -75 16 6 12 9 39 6 60 -6 47 2 49 75 14z m-372 -47 c1 -13 7 -34 15
-48 20 -35 18 -42 -7 -35 -112 30 -120 40 -61 80 46 31 53 31 53 3z"/>
<path d="M5374 4388 c64 -89 70 -103 70 -158 -1 -44 -7 -65 -29 -98 -29 -44
-29 -57 -2 -47 16 7 47 65 66 124 15 50 -10 121 -60 166 -44 40 -70 47 -45 13z"/>
<path d="M4396 4248 c-66 -101 -69 -174 -8 -233 51 -49 58 -44 23 19 -31 53
-39 101 -22 134 5 9 15 31 22 47 7 17 14 33 16 37 9 19 -18 15 -31 -4z"/>
<path d="M5138 3997 c-58 -22 -128 -80 -115 -94 13 -12 110 29 147 61 62 56
53 66 -32 33z"/>
<path d="M4542 3953 c4 -21 80 -61 123 -64 17 -2 38 -10 48 -18 9 -8 20 -11
24 -7 4 3 -3 13 -15 21 -11 9 -28 22 -36 30 -19 20 -102 55 -128 55 -13 0 -18
-6 -16 -17z"/>
</g>
</svg>
